<svg width="672" height="672" viewBox="0 0 672 672" fill="none" xmlns="http://www.w3.org/2000/svg">
<rect width="672" height="672" rx="336" fill="black"/>
<path d="M317.102 57C358.388 57.0002 391.858 90.4695 391.858 131.756C391.858 173.042 358.388 206.512 317.102 206.512C302.824 206.512 289.481 202.508 278.133 195.563C227.989 246.221 152.416 322.47 152.238 322.65C128.876 348.681 133.536 375.318 152.238 398.074C175.276 426.108 208.972 437.455 248.352 392.067C248.352 392.067 249.954 390.465 252.846 387.577C246.177 376.392 242.345 363.318 242.345 349.35C242.345 308.063 275.815 274.594 317.102 274.594C331.299 274.594 344.571 278.55 355.876 285.422C377.502 264.19 396.935 245.328 407.876 235.213C443.252 202.507 498.642 196.5 552.716 253.902C596.101 299.957 600.106 336.668 567.401 376.716C538.082 412.616 399.341 547.207 370.919 574.7C364.108 597.989 342.591 615 317.101 615C286.136 615 261.035 589.897 261.035 558.933C261.035 527.968 286.136 502.866 317.101 502.866C332.688 502.866 346.79 509.228 356.952 519.495L516.005 363.366C542.036 337.335 545.209 315.762 520.678 288.61C490.267 254.911 464.611 247.895 426.566 280.601C416.35 289.383 401.706 303.603 385.749 319.708C389.679 328.796 391.858 338.818 391.858 349.35C391.858 390.636 358.388 424.105 317.102 424.105C307.9 424.105 299.087 422.441 290.946 419.4C289.728 420.719 289.073 421.429 289.068 421.436C208.973 506.87 155.37 462.106 139.556 454.142C73.4771 398.742 66.4197 348.346 107.517 301.959C159.518 243.265 221.449 182.588 247.049 157.909C244.009 149.769 242.345 140.957 242.345 131.756C242.345 90.4693 275.815 57 317.102 57Z" fill="url(#paint0_linear_1_55)"/>
<defs>
<linearGradient id="paint0_linear_1_55" x1="589.023" y1="336" x2="82" y2="336" gradientUnits="userSpaceOnUse">
<stop stop-color="#9333EA"/>
<stop offset="0.288462" stop-color="#A855F7"/>
<stop offset="0.697115" stop-color="#3B82F6"/>
<stop offset="1" stop-color="#2563EB"/>
</linearGradient>
</defs>
</svg>
