<svg width="380" height="418" viewBox="0 0 380 418" fill="none" xmlns="http://www.w3.org/2000/svg">
<path d="M176.115 0C207.043 0.00015256 232.115 25.0721 232.115 56C232.115 86.9279 207.043 112 176.115 112C165.419 112 155.424 109 146.924 103.798C109.352 141.754 52.7237 198.89 52.6151 199C35.1151 218.5 38.6058 238.453 52.6151 255.5C69.8733 276.5 95.1151 285 124.615 251C124.631 250.984 125.831 249.788 127.983 247.639C122.987 239.259 120.115 229.465 120.115 219C120.115 188.072 145.187 163 176.115 163C186.75 163 196.692 165.965 205.161 171.112C221.361 155.208 235.919 141.078 244.115 133.5C270.615 109 312.108 104.5 352.615 147.5C385.115 182 388.115 209.5 363.615 239.5C341.651 266.395 237.71 367.227 216.427 387.814C211.323 405.258 195.208 418 176.115 418C152.919 418 134.115 399.196 134.115 376C134.115 352.804 152.919 334 176.115 334C187.792 334 198.353 338.767 205.966 346.458L325.115 229.5C344.615 210 346.991 193.839 328.615 173.5C305.834 148.255 286.615 143 258.115 167.5C250.462 174.079 239.493 184.733 227.54 196.798C230.483 203.605 232.115 211.112 232.115 219C232.115 249.928 207.043 275 176.115 275C169.222 275 162.62 273.753 156.521 271.475C155.614 272.457 155.125 272.99 155.115 273C95.1155 337 54.9612 303.466 43.1151 297.5C-6.38492 256 -11.6711 218.249 19.1151 183.5C58.0684 139.533 104.46 94.0793 123.638 75.5918C121.36 69.4938 120.115 62.8923 120.115 56C120.115 25.0721 145.187 0 176.115 0Z" fill="url(#paint0_linear_1_26)"/>
<defs>
<linearGradient id="paint0_linear_1_26" x1="379.813" y1="209" x2="0" y2="209" gradientUnits="userSpaceOnUse">
<stop stop-color="#9333EA"/>
<stop offset="0.288462" stop-color="#A855F7"/>
<stop offset="0.697115" stop-color="#3B82F6"/>
<stop offset="1" stop-color="#2563EB"/>
</linearGradient>
</defs>
</svg>
